<svg viewBox="0 0 16 16" height="16px" width="16px" xmlns="http://www.w3.org/2000/svg" xmlns:bx="https://boxy-svg.com">
  <defs></defs>
  <g transform="matrix(0.025, 0, 0, 0.024554, 8.000001, 7.500096)" bx:origin="0 0">
    <path style="stroke: none; stroke-width: 0; stroke-dasharray: none; stroke-linecap: butt; stroke-dashoffset: 0; stroke-linejoin: miter; stroke-miterlimit: 4; fill: rgb(190,190,190); fill-rule: nonzero; opacity: 1;" vector-effect="non-scaling-stroke" transform=" translate(-320, -256)" d="M 96.2 200.1 C 96.07 197.4 96 194.7 96 192 C 96 103.6 167.6 32 256 32 C 315.3 32 367 64.25 394.7 112.2 C 409.9 101.1 428.3 96 448 96 C 501 96 544 138.1 544 192 C 544 204.2 541.7 215.8 537.6 226.6 C 596 238.4 640 290.1 640 352 C 640 422.7 582.7 480 512 480 H 144 C 64.47 480 0 415.5 0 336 C 0 273.2 40.17 219.8 96.2 200.1 z" stroke-linecap="round"></path>
  </g>
  <g transform="matrix(0.02 0 0 0.02 10.86 3.48)"  >
    <ellipse style="stroke: rgb(0,196,0); stroke-width: 0; stroke-dasharray: none; stroke-linecap: butt; stroke-dashoffset: 0; stroke-linejoin: miter; stroke-miterlimit: 4; fill: rgb(0,196,0); fill-rule: nonzero; opacity: 1;"  cx="0" cy="0" rx="140" ry="140" />
  </g>
</svg>
